<?xml version="1.0" encoding="UTF-8"?>
<svg id="Layer_1" data-name="Layer 1" xmlns="http://www.w3.org/2000/svg" version="1.1" viewBox="0 0 400 400">
  <defs>
    <style>
      .cls-1 {
        fill: #50b848;
      }

      .cls-1, .cls-2 {
        stroke-width: 0px;
      }

      .cls-2 {
        fill: none;
      }
    </style>
  </defs>
  <path class="cls-2" d="M248.5,147.2c13.1-2.1,6.5-21.6-5.7-15-6.8,4.5-3,16.4,5.6,15h.2Z"/>
  <path class="cls-2" d="M157.5,134.9c-8-3.6-13.7,8.3-5.5,12,7.2,3.1,12.3-8,5.6-11.9h-.1Z"/>
  <path class="cls-2" d="M196.2,118c3-.2,5.9-1.8,7.1-4.1,3.7-6.1-.5-16.1-8.2-15.9-14.4,0-13,22.2,1,20h.2Z"/>
  <path class="cls-2" d="M313.7,206.1c-8.7-3.7-18,4.8-16.6,13.5.4,2.4,1.7,4.9,3.7,6.6,14.5,12.1,30-12.5,13-20h-.2Z"/>
  <path class="cls-1" d="M368.4,215.3c2.5-41.1-36.6-72.7-75.8-71.2-.3-.3-.5-.7-.6-1.2-1.2-11.1-4.6-21.7-9.9-31.3-14.7-26.7-42.6-45.7-72.7-50.1-51.2-7.8-104.6,30.2-111.6,81.8C27.1,147.8.6,238,62.6,275.5c20.2,12.3,45.9,9.8,68.5,9.9,1,0,2.3-.2,2.4-1.4,0-2.8.3-10-.2-12.2-.3-.4-1.2-.3-1.7-.3-7.7,0-15.8.3-23.9.1-11.6-.2-23.5-1.3-34-6.5-48.8-25.8-37.4-96,16.9-105.8,6.2-1.3,12.6-2.1,18.9-2.8,1.4,0,2.2-.8,2.1-2.3.4-29.3,19.6-56.4,45.4-69.7,54.4-29.8,117.7,10.7,124.9,72.4.4.5,1.2.6,1.8.6,6.4,0,13.1.3,19.6,1.3,10.8,1.7,21.3,5.5,29.6,12.8,30.1,22.4,27.3,72.3-5.1,91.3-19.5,11.6-43.5,8.6-65.2,8.7-.7,0-2-.2-2.1.7,0,2.1,0,9.8,0,12.5.2,1,1.5.6,2.3.7,3.3,0,6.7-.1,9.9-.6,10-.8,20.3.4,30.4-.2,35.9-.6,66.9-33.4,65.3-69.2v-.2Z"/>
  <path class="cls-1" d="M202.1,127.9c8.6-2.7,13.2-11.2,12.6-19.8-.4-10.4-8.6-20.1-19.5-19.6-23,0-28.3,33.1-7.1,39.3,2.6,0,11.4-.2,13.9.1h0ZM193.5,98.1c7.9-1.4,13.1,7.6,10.4,14.4-1.2,3.6-4.9,5.5-8.6,5.6-13.1,1.3-14.2-18.5-2-20h.2Z"/>
  <path class="cls-1" d="M259.7,169.6c-7.4,1.4-9.3,11.2-4.8,16.5,1.8,2.3,5,3.5,7.9,3,12.8-1.7,9.5-21.4-2.9-19.5h-.2Z"/>
  <path class="cls-1" d="M333.4,211.5c-1.8-7.5-6.8-13.4-12.7-16.1-13.3-6.5-32.2,0-35.8,15.2-7.9,40.9,55.7,41,48.6,1.1v-.2ZM321.1,219.4c-2.7,16.6-29.7,10.1-23.2-6.2,2.7-9.1,15.2-10,20.9-3.4,2.1,2.3,3.1,6,2.4,9.4v.2Z"/>
  <path class="cls-1" d="M132,170.3c-10.8-3.3-18,9.9-9.2,17,5.1,4.4,12.5,1.3,14.8-4.5,2.2-4.9-.2-10.4-5.5-12.5h-.2Z"/>
  <path class="cls-1" d="M265.9,207.3c-8.4,2.3-7.7,14.8.6,16.4,14.3,1.9,13.4-19.5-.4-16.5h-.2Z"/>
  <path class="cls-1" d="M122.4,237.9c-11,.5-10.7,17,.9,16.8,2.9,0,6.1-1.1,8.9-1.3,6.1-.4,18-.1,21.5-.1.9,0,.4,2,.8,2.4.2.2.7.1,1.5.2,3.3,0,11,0,12.6,0,.2,0,.4,0,.4-.2,0-.3,0-1.3,0-2.7v-12.4c0-1,.1-1.2-.7-1.2-7.1-.2-35.2.9-45.7-1.3h-.1Z"/>
  <path class="cls-1" d="M277.9,250.6c5.2-11.5-6.5-13.4-15.8-11.4-3.3,0-33.2,0-35.2,0-.2,0-.2.3-.2,1.4,0,2.9,0,6.7,0,9.8,0,1.3,0,1.1,1.1,1.1,3.2,0,6.6,0,9.8,0,1.5,0,2.3,0,3.3,0,.3,0,.3.5.4,1.1,0,.7.1,1.2.7,1.2,3.8.1,16.2-.3,22.7.2,1.2,0,2.1.3,3.3.5,3.6.4,7.7-.6,9.8-3.8h0Z"/>
  <path class="cls-1" d="M237.7,169.2c5.8-4.7,11.5-10,18.2-13.4,2.5-1.2,4.6-3.1,6-5.4,8.7-13.5-3.6-31.8-19.5-26.6-11,3.6-17.3,17.7-7.6,27.3.9,1.2.3,2.4-.7,3.2-5.3,4.5-11.5,8.9-15.1,14.9,0,.1.2.2.3.2,1.3,0,5.5,0,9.6,0,2.8,0,6.6.1,8.7,0h0ZM239.9,135.6c3.2-7.4,15.4-5.2,16,2.7.2,13.6-20.4,10.6-16.1-2.6v-.2Z"/>
  <path class="cls-1" d="M160.6,142v.2c-2.4,11-18.5,1.9-10.6-6.1,4.3-4.4,12.2-.2,10.6,5.9ZM87.5,217.5v.2c-1.4,8.7-15.2,4.4-11.2-3.7,3-5.7,12-2.9,11.2,3.5ZM223.2,209c0-.9.2-1.2-.2-1.3-2.9-.4-52.2.7-54.8-.4h0c.2-19.5-1-39.3,1.1-58.6.2-3.2,1.1-6.3,1-9.5-1-12-17-18-26.2-11.3-11.6,8.3-6.2,29.7,8.7,29.6.7,0,1.1-.1,1.4.2,0,9.9,0,46.4,0,49.7-13.4.5-40.1.1-52.9.1-1.1,0-2.3-.4-3.2-1.2-6.3-7.2-12.8-10.5-22.6-8.1-10.2,3.1-15.7,15.9-11.1,25.8,6.3,14.9,30.9,13.7,35.1-2.2,0-.2,0-.3.2-.3,2.1,0,3.9,0,6.9,0,20.7,0,69.7,0,84.4,0,.2.5,0,1.1.1,1.9,0,23,0,48.1,0,71,0,3.5,2.5,6.1,4.9,8.4.7.8,1.8,1,2.7.3,4.6-3,7.2-8.1,6.3-13.5,0-20.9,0-45.3,0-66.3.1-.8-.3-1.7.6-1.9,3.8,0,15.9,0,17.2,0,.3,0,.3-.2.3-.5,0-1.5,0-9.2,0-12.1Z"/>
  <path class="cls-1" d="M226.8,251.8c-.2,9.4,0,23.2,0,35,.1,14.4-.2,28.3.1,29.4,2.7,0,7.9,0,11.7,0,1.6,0,2.5.1,2.8-.1,0-3.8.2-60.3,0-64.2-.1-.4-.5-.4-.9-.4-2.8,0-12,0-13.3,0-.1,0-.2,0-.2.2h0Z"/>
  <path class="cls-1" d="M154.4,255.7c-.2,6,0,24.1,0,33.3,0,13.7,0,26.6,0,27.5,0,0,0,0,.1,0,.1,0,.4,0,1,0,2.6,0,10.2,0,13.5,0,.3-3.2,0-57.3,0-60.9-3.4-.1-12.7,0-14.5,0h0Z"/>
  <path class="cls-1" d="M237.8,221.9c.2-12.6,0-33.8,0-47.5,0-1.8,0-2.8,0-4.2,0-.6.2-.8-.5-.9-.2,0-.6,0-1-.1-9.2-.2-24.7.2-34.1-.2-.4-.4,0-1.4-.2-2.7,0-5,0-10.9,0-16.5,0-6.3,0-17.4,0-21.9,0-.4-.3-.4-.6-.4-2.1,0-12.1,0-13.6,0-.2,0-.3,0-.4.1,0,.6,0,4.8,0,10.8,0,15.7-.1,42.5,0,45.3,4.8.2,10.3,0,15.9,0,3.6,0,7.3,0,10.6,0,3.4,0,6.4,0,8.2,0,.8,0,1.1.8,1,1.5.1,9.6-.2,27.1.1,36.2.1.3.5.3.8.3,2.8,0,12.1,0,13.6,0h0Z"/>
</svg>